<?xml version="1.0" encoding="UTF-8" standalone="no"?><svg xmlns="http://www.w3.org/2000/svg" xmlns:xlink="http://www.w3.org/1999/xlink" contentScriptType="text/ecmascript" fill="#000000" width="207.7" zoomAndPan="magnify" contentStyleType="text/css" viewBox="-4.2 -0.9 207.7 501.0" height="501" preserveAspectRatio="xMidYMid meet" version="1"><g id="change1_1"><path fill="#e6ae7e" d="M76.9,489.2c0.1-9,0.3-17.8,0.4-26.8l-3.5-84.5l29.1-4.9l-5.3,94.8c3.2,3.4,7.2,7.4,12.2,11.2 c6.6,5,12.9,8.4,18.1,10.8C110.9,489.6,93.9,489.4,76.9,489.2z M131.3,476.6c1.3-8.9,2.6-17.6,3.9-26.5l7.4-84.2l29.5-1.1 l-17.5,93.3c2.8,3.8,6.2,8.3,10.7,12.6c5.9,5.8,11.7,10,16.6,13.1C165,481.4,148.2,479,131.3,476.6z"/></g><g id="change2_1"><path fill="#171717" d="M135.2,450.1c0.2,0.6,0.6,1.4,1,2.2c0,0,0.6,1.4,1.2,2.7c1.7,3.6,10,20.3,25.4,22.8c2.1,0.4,5.4,0.6,9.8-0.4 c7.3,0.6,13.1,4.6,14.6,10.2c0.3,1,0.7,3.3-0.1,6.4c-14.9-1.7-29.7-3.5-44.6-5.2c-0.8-2.3-1.5-4.5-2.3-6.8c-1.1,2.1-2.3,4-3.4,6.1 c-2.7-0.3-5.4-0.6-8.1-0.9c2.2,1.4,4,3.3,5,5.6c0.5,1.1,1.3,3.3,0.8,6.5c-15,0.2-29.9,0.4-44.9,0.6c-1-2.2-2.1-4.3-3.1-6.5 c-0.8,2.2-1.8,4.3-2.6,6.5c-3,0.1-6,0.1-9.1,0.2c-0.1-5.8,0.1-12.1,0.5-18.7c0.4-6.8,1.1-13.1,2-19c0.5,1,1.4,2.7,2.7,4.6 c2.1,3.2,12.5,18.6,28.2,19.3c2.1,0.1,5.4-0.1,9.7-1.7c3.4,0.7,6.7,1.5,10.1,2.2 M131.8,467.7c0.2-1.1,0.4-2.2,0.7-3.3"/></g><g id="change2_2"><path fill="#171717" d="M110,70.2c-1.7,0.6-3.4,1.1-5.1,1.7 M104.9,71.8c-2,0.7-5.6,1.8-7.6,2.5c-1,0.3-4,1.3-4.9,1.6 c-2.7,0-7-0.5-11.7-2.6c-6.6-3-10.1-7.7-12-10.1c-8.8-11.3-8-23.8-7.7-28.4c0.4-5.5,1.4-21.5,13-27.6c4.7-2.4,9.5-2.4,12.4-2.1 c2.5-1.8,6.8-4.7,12.4-5.1c12.5-0.9,21.2,11.3,24.1,15.4c1.3,1.7,15.2,21.8,5.6,40.1c-3.5,6.7-8.7,10.6-12,12.6 c-2.1,0.7-4.3,1.4-6.4,2.1"/></g><g id="change3_1"><path fill="#edeced" d="M125,205.8c15.4-1.9,30.8-3.8,46.3-5.7c9.7,24.5,19.8,56.9,25.2,95.7c7,51.3,3.1,95-2.2,125.7 c-11.2,7.9-32.6,20.6-62,24.1c-44.7,5.4-78.5-14.1-89.7-21.3c9.2-70.5,18.4-141.1,27.5-211.6c16.3-2.1,32.7-4.1,49-6.2 M119.1,206.5 c2-0.2,4-0.5,6-0.7"/></g><g id="change1_2"><path fill="#e6ae7e" d="M118.5,88.7c-0.4,1.7-0.7,3.5-1.1,5.2 M121.4,94.1c-1.6,1.7-4.1,4.6-5.8,8.9c-1.5,3.7-1.8,7-1.9,9.1 c-8-8-16.1-16.1-24.1-24.1c1-0.7,2.5-1.9,3.7-4c1.1-2,1.4-3.9,1.5-5.5c-7.1-3.4-13.6-11.3-18.1-22.5c-0.8,0.3-1.7,0.5-2.7,0.3 c-4.7-0.8-8-9.4-4.8-13.1c0.9-1,2.1-1.5,3.2-1.8c2.2-0.6,4.5-1.3,6.8-2.1c5.2-1.9,9.7-4.1,13.4-6.3c-0.6-3.7-1.2-7.4-1.9-11 c1.7,3.4,3.3,6.8,5,10.2c6-1.5,12.1-3,18.1-4.5c0.5,1.1,0.9,2.1,1.3,3.2c0.3,0,0.6,0,0.8,0.1c4.7,0.9,7.8,9.6,4.5,13.3 c-0.3,0.4-0.7,0.6-1.1,0.9c2.7,11.9,1.3,22.3-3.5,28.5c0.2,0.9,0.7,2.1,1.7,3c1.2,1.1,2.6,1.4,3.2,1.4c0.4,3.9,0.8,7.9,1.2,11.8"/></g><g id="change1_3"><path fill="#e6ae7e" d="M51.7,53.9c6.3-17.8,10.6-26.5,13-26c2.7,0.6,2.9,13.1,0.5,37.6c-20,9.8-31.8,21.7-29.6,29.7 c0.4,1.6,1.6,3.6,4.5,5.5c-3.7,7.7-7.5,15.5-11.2,23.2c-23-2.4-27.2-10.4-28.1-12.9C-4.2,98,15.8,75.1,51.7,53.9z M166.6,69.6 c-0.3,2.6-3.7,4.8-10.3,6.6c8.6,5,17.1,10.1,25.7,15.1c11.6-4.4,19.4-12.1,19.3-19.8c-0.1-7.9-8.3-13.2-17.9-19.1 c-8.6-5.3-23.2-12.7-44.4-15.4c-11.8-14.9-18.7-21.8-20.8-20.5c-2.3,1.4,1.1,12.3,10.1,32.8C154.5,57.6,167.2,64.3,166.6,69.6z"/></g><g id="change4_1"><path fill="#ff814b" d="M168.9,155.6c0.5,2.8,0.9,5.5,1.4,8.3 M170.3,163.9c2.1,12.3,4.1,24.7,6.2,37c-8.8,6-26.4,16.4-51,19.7 C97.3,224.4,75,217,65,212.9c2.4-21.5,4.8-43,7.1-64.5c-5.4-1.3-12-3.4-19.2-7c-11.1-5.5-18.9-12.4-24-17.6c-0.6-3.6-1-9.9,1.1-17.2 c1.5-5.1,3.8-9,5.6-11.6c11.8-2.5,24.3-4.8,37.4-6.8c6.5-1,13-1.8,19.3-2.6c3.8,2.9,7.6,5.9,11.4,8.8c3.8,2.9,7.6,5.8,11.4,8.6 c1-4.1,1.9-8.2,2.8-12.4c0.9-4.2,1.9-8.3,2.7-12.4c3.6-1.7,7.7-3.2,12.2-4.6c13.1-4,24.9-4.5,33.8-4c2.5,2.7,5.1,5.8,7.7,9.3 c3.2,4.4,5.8,8.6,7.8,12.4c-1,6.2-3.1,14.8-7.9,24c-3.1,6.1-6.6,11-9.7,14.8c1.4,8.5,2.9,17,4.3,25.5"/></g><g id="change3_2"><path fill="#edeced" d="M87.9,87c-0.6-0.5,0.3-1.4,0.9-0.9c9.6,8.6,19,17.5,28.4,26.3c2.4-11.8,4.8-23.8,7.8-35.5 c0.2-0.8,1.4-0.5,1.2,0.3c-2.2,12-5.2,24-8.1,35.9c0,0.1-0.1,0.1-0.1,0.1c0.4,0.6-0.5,1.4-1.1,0.8C107.2,105.2,97.5,96.2,87.9,87z M72.3,147.8c0.2-9.5,0.3-19,0.4-28.6c0-0.8-1.3-0.8-1.3,0c-0.2,9.5-0.4,19-0.5,28.6C70.8,148.8,72.2,148.8,72.3,147.8z M163.6,128.8c0.2,0.9,1.6,0.5,1.4-0.4c-1.7-10-4.5-19.7-8.4-29.1c-0.3-0.6-1.4-0.2-1.1,0.5C159.1,109.3,161.9,118.9,163.6,128.8z M38.7,94.3c-5.4,9.4-8,19.7-7.9,30.6c0,0.9,1.5,0.9,1.5,0c-0.1-10.7,2.5-20.5,7.6-29.9C40.3,94.2,39.2,93.5,38.7,94.3z M42.9,93.8 c-4.9,11.1-7.5,22.7-8.4,34.8c-0.1,0.9,1.4,0.9,1.4,0c0.8-11.9,3.6-23.3,8-34.3C44.2,93.7,43.1,93.2,42.9,93.8z M180.4,95 c-4.1-9.2-9.8-17.9-16.7-25.2c-0.5-0.6-1.3,0.3-0.8,0.8c6.4,7.9,11.9,15.9,16.4,25C179.6,96.5,180.8,95.8,180.4,95z M159,70.3 c-0.5-0.7-1.6-0.1-1.1,0.7c6.7,10.2,13.7,20.1,20.7,30.2c0.5,0.8,1.8,0,1.3-0.7C172.8,90.3,166.1,80.2,159,70.3z M67,205.3 c36.2,5.4,73.4,2.1,107.7-11.1c0.6-0.2,0.4-1.2-0.3-1c-34.6,12-70.7,16.1-107,10.7C66.5,203.8,66.1,205.2,67,205.3z M174.3,197.9 c-33.8,16.3-71.5,20.1-107.8,10.7c-0.9-0.2-1.3,1.1-0.4,1.4c36.4,9.7,75.1,5.8,108.8-11C175.6,198.6,175,197.6,174.3,197.9z M96.7,64.4c-0.1,0.4-1.1,4,1.1,6.1c1.1,1.1,2.7,1.6,4.2,1.4c2.5-0.4,2.6-2.6,5.3-3.4c2.6-0.8,3.9,0.8,5.5-0.3c1.6-1,2-3.5,1.6-5.3 c-0.9-3.7-5.5-4.9-5.9-5C103.7,56.6,97.9,59.9,96.7,64.4z"/></g><g id="change2_3"><path fill="#171717" d="M92.1,46c0.4,1.1,0.1,2.3-0.7,2.6c-0.8,0.3-1.9-0.3-2.3-1.4c-0.4-1.1-0.1-2.3,0.7-2.6 C90.6,44.2,91.7,44.8,92.1,46z M104.9,39.8c-0.9,0.2-1.4,1.3-1.1,2.5s1.2,1.9,2.1,1.7s1.4-1.3,1.1-2.5 C106.7,40.4,105.8,39.6,104.9,39.8z"/></g><g id="change2_4"><path fill="#171717" d="M74.4,38.1c1.4,7.6,1.8,11.4,1.1,11.6c-0.7,0.2-2.6-3.8-5.7-12L74.4,38.1z M111.1,26.4 c3.1,8.2,5,12.2,5.7,12c0.7-0.2,0.3-4.1-1.1-11.6L111.1,26.4z"/></g><g id="change2_5"><path fill="#171717" d="M95.9,78c7,1.8,13.7,0.5,18.8-4.8c0.6-0.6,1.6,0.3,1,1c-5.3,5.3-13,7.5-20.1,4.7C95,78.8,95.3,77.9,95.9,78z M62.7,44.6c1.3-4.8,1.7-9.9,2.5-14.8c0.1-0.7-0.9-1-1-0.3c-1,4.9-2.2,9.9-2.7,14.9C61.4,45.1,62.5,45.2,62.7,44.6z M60.3,44.1 c0.9-4.5,1.8-9,2.6-13.5c0.1-0.7-1-1.1-1.1-0.3c-1,4.5-2,9-2.9,13.4C58.8,44.6,60.2,45,60.3,44.1z M127,28.1 c0.5,0.6,1.5-0.2,1.1-0.8c-2.3-3.8-5.5-7.2-8.6-10.4c-0.5-0.5-1.3,0.3-0.8,0.8C121.7,21,124.2,24.6,127,28.1z M125.1,30.3 c0.5,0.6,1.5-0.2,1.1-0.8c-2.1-3.5-4.7-6.7-7.1-9.9c-0.4-0.6-1.4,0-1,0.6C120.3,23.5,122.5,27.1,125.1,30.3z M59.5,70.5 c0.4,0.8,1.7,0.1,1.3-0.7c-2.7-5.6-6-10.9-10.3-15.5c-0.6-0.6-1.5,0.3-0.9,0.9C53.5,60,56.9,64.9,59.5,70.5z M57.2,72 c0.3,0.9,1.7,0.5,1.4-0.4c-2.1-6.2-5.5-11.8-10.2-16.5c-0.5-0.5-1.3,0.3-0.8,0.8C51.8,60.8,55,66.1,57.2,72z M193,407.8 c-41.1,22.3-89.7,24.7-132.6,7.6c0-0.1,0-0.1,0.1-0.2C67,353.1,73.6,291.1,79.9,229c0.1-0.8-1.1-0.8-1.2,0 C71.9,291,65.5,352.9,59,414.9c-4.6-1.9-9.1-4-13.5-6.3c-0.8-0.4-1.5,0.8-0.7,1.2c45.9,24.9,103.2,24.4,148.8-0.9 C194.3,408.5,193.7,407.4,193,407.8z M177.5,404c-0.1,0.9,1.4,0.9,1.5,0c5.8-63,0.7-126.5-15.6-187.6c-0.2-0.8-1.4-0.5-1.2,0.3 C178,277.9,183.4,341.1,177.5,404z M138.4,422.3c0,0.9,1.4,0.9,1.5,0c2.8-65.9-0.4-131.8-9.8-197c-0.1-0.8-1.3-0.5-1.2,0.3 C137.9,290.8,141.2,356.6,138.4,422.3z M85.5,421.3C95.3,358,101.7,294,104,229.9c0-0.8-1.3-0.8-1.3,0c-2.9,64-8.8,127.7-18.5,191 C84,421.8,85.4,422.2,85.5,421.3z M73.5,51.9c-0.3-0.7-3.6-7.1-0.9-7c0.7,0,0.7-1,0-1.1c-4.5-0.6-1.6,7.4-0.1,8.9 C73,53.2,73.7,52.5,73.5,51.9z M116,34.6c1.7-1.1,2.5,4.3,2.6,5.1s1.3,0.6,1.4-0.2c0.1-1.8-1.6-8-4.5-5.9 C114.9,34.1,115.4,35,116,34.6z M102.7,53.4c-0.8,0.3-1.6,0.6-2.4,1c-0.7,0.4-0.2,1.4,0.5,1.2c1.1-0.3,2.1-0.8,3.1-1.2 c0.4-0.1,0.5-0.5,0.4-0.8c0-0.1,0-0.2-0.1-0.4c-2.3-4.5-4.5-8.9-7-13.3c-0.3-0.6-1.2-0.1-0.9,0.5C98.3,44.9,100.5,49.1,102.7,53.4z M81.6,43.4c4.1-0.7,8.2-1.1,12.4-0.8c0.8,0.1,0.8-1.2,0-1.2c-4.3-0.5-8.6-0.3-12.8,0.7C80.3,42.3,80.7,43.6,81.6,43.4z M101.2,39.7 c2.3-2.9,5.2-4.7,8.4-6.4c0.7-0.4,0.2-1.5-0.5-1.3c-3.7,1.1-6.7,4-8.8,7.1C99.8,39.8,100.8,40.3,101.2,39.7z M86.6,60.1 c0.3-0.9,0.3-1.8,0.3-2.7c0.1-0.7-1.1-0.9-1.3-0.2c-0.1,0.9-0.4,1.8-0.4,2.7C85.4,60.7,86.4,60.8,86.6,60.1z M90,59.5 c0.3-0.8,0.2-1.7,0.3-2.6c0.1-0.9-1.2-0.8-1.3,0c-0.1,0.8-0.3,1.7-0.1,2.6C88.9,60.1,89.8,60,90,59.5z M112.5,50 c0.3,0.5,1.1,0.3,1.1-0.3c0-0.8-0.4-1.6-0.7-2.4c-0.3-0.7-1.4-0.5-1.2,0.3C111.9,48.5,112,49.3,112.5,50z M115,49.1 c0.4,0.5,1.4,0.3,1.2-0.5c-0.2-0.7-0.7-1.4-1-2.1c-0.4-0.7-1.5-0.1-1.1,0.7C114.4,47.8,114.6,48.5,115,49.1z M8.5,108.3 c-2,0.2-4,0.4-6,0.6c-0.9,0.1-0.9,1.5,0,1.4c2-0.2,4-0.5,6-0.8C9.3,109.4,9.3,108.2,8.5,108.3z M199.7,71c-1.4,0.1-2.7,0.2-4.1,0.3 c-0.9,0.1-0.9,1.5,0,1.4c1.4-0.1,2.7-0.3,4.1-0.4C200.5,72.2,200.5,70.9,199.7,71z"/></g></svg>